<?xml version="1.0" encoding="iso-8859-1"?>
<!-- Generator: Adobe Illustrator 16.0.0, SVG Export Plug-In . SVG Version: 6.00 Build 0)  -->
<!DOCTYPE svg PUBLIC "-//W3C//DTD SVG 1.1//EN" "http://www.w3.org/Graphics/SVG/1.1/DTD/svg11.dtd">
<svg version="1.1" xmlns="http://www.w3.org/2000/svg" xmlns:xlink="http://www.w3.org/1999/xlink" x="0px" y="0px"
	 width="147.001px" height="147.001px" viewBox="0 0 147.001 147.001" style="enable-background:new 0 0 147.001 147.001;"
	 xml:space="preserve">
<g id="Layer_2">
	<radialGradient id="SVGID_1_" cx="-260.5015" cy="73.5005" r="73.5005" gradientUnits="userSpaceOnUse">
		<stop  offset="0" style="stop-color:#ADB3BB"/>
		<stop  offset="0.8351" style="stop-color:#BCBEC3"/>
		<stop  offset="0.8898" style="stop-color:#D2D5DB"/>
		<stop  offset="0.9193" style="stop-color:#94939C"/>
		<stop  offset="0.9693" style="stop-color:#6E727E"/>
		<stop  offset="1" style="stop-color:#9C9FA9"/>
	</radialGradient>
	<circle style="fill:url(#SVGID_1_);" cx="-260.501" cy="73.501" r="73.5"/>
</g>
<g id="Layer_3">
	
		<linearGradient id="SVGID_2_" gradientUnits="userSpaceOnUse" x1="-260.502" y1="132" x2="-260.502" y2="10.4976" gradientTransform="matrix(-1 0 0 1 -521.0039 0)">
		<stop  offset="0" style="stop-color:#FFFFFF"/>
		<stop  offset="1" style="stop-color:#545C69"/>
	</linearGradient>
	<path style="fill:none;stroke:url(#SVGID_2_);stroke-width:3;stroke-miterlimit:10;" d="M-260.502,130.5
		c47.5,0,42.5-35.35,40.75-45.3c-1.75-9.951-12.922-57.023-19-64.496c-9.25-11.372-33.25-11.845-43.5,0
		c-6.313,7.296-17.25,54.545-19,64.496C-303.002,95.15-308.002,130.5-260.502,130.5z"/>
</g>
<g id="Layer_5">
	
		<linearGradient id="SVGID_3_" gradientUnits="userSpaceOnUse" x1="-261.2515" y1="117.25" x2="-261.2515" y2="87.6904" gradientTransform="matrix(-1 0 0 1 -522.5029 0)">
		<stop  offset="0" style="stop-color:#FFFFFF"/>
		<stop  offset="1" style="stop-color:#545C69"/>
	</linearGradient>
	<path style="fill:none;stroke:url(#SVGID_3_);stroke-width:2;stroke-miterlimit:10;" d="M-261.251,116.25
		c34.5,0,31-26.25,21.75-27.5c-7.093-0.958-2.25,10-21.75,10s-14.657-10.958-21.75-10C-292.252,90-295.751,116.25-261.251,116.25z"
		/>
</g>
<g id="Layer_1">
	<linearGradient id="SVGID_4_" gradientUnits="userSpaceOnUse" x1="-260.5635" y1="92.8765" x2="-260.4549" y2="17.6241">
		<stop  offset="0" style="stop-color:#4D5056"/>
		<stop  offset="1" style="stop-color:#31353A"/>
	</linearGradient>
	<linearGradient id="SVGID_5_" gradientUnits="userSpaceOnUse" x1="-260.564" y1="93.3765" x2="-260.4539" y2="17.1241">
		<stop  offset="0" style="stop-color:#B1B5BE"/>
		<stop  offset="0.2848" style="stop-color:#54565C"/>
		<stop  offset="0.5853" style="stop-color:#212730"/>
		<stop  offset="1" style="stop-color:#B1B5BE"/>
	</linearGradient>
	<path style="fill:url(#SVGID_4_);stroke:url(#SVGID_5_);stroke-miterlimit:10;" d="M-260.455,17.623
		c-20.442-0.029-23.212,9.121-23.245,32.334c-0.034,23.214,3.278,42.89,23.137,42.918s23.227-19.638,23.261-42.852
		C-237.27,26.811-240.012,17.653-260.455,17.623z M-247.668,79.083c-2.333,0-2.618-1.451-2.583-4.583
		c0.083-7.417-3-12.417-10.25-12.417s-10.333,5-10.25,12.417c0.035,3.132-0.25,4.583-2.583,4.583c-3.75,0-3.772-4.415-3.75-6.417
		c-0.137-12.014,5.464-17.266,16.583-17.417c11.12,0.152,16.72,5.403,16.583,17.417C-243.896,74.669-243.918,79.083-247.668,79.083z
		 M-260.779,46.516c-8.306-0.012-15.979,5.572-16.6-0.892c-1.403-14.613,7.62-21.661,17.371-21.12
		c9.752-0.512,18.756,6.561,17.311,21.17C-243.337,52.136-251.736,46.529-260.779,46.516z"/>
	
		<linearGradient id="SVGID_6_" gradientUnits="userSpaceOnUse" x1="-269.293" y1="85.7617" x2="-248.209" y2="85.7617" gradientTransform="matrix(-1 0 0 1 -519.2529 0)">
		<stop  offset="0" style="stop-color:#212730"/>
		<stop  offset="0.5159" style="stop-color:#737883"/>
		<stop  offset="1" style="stop-color:#212730"/>
	</linearGradient>
	<path style="fill:none;stroke:url(#SVGID_6_);stroke-linecap:round;stroke-miterlimit:10;" d="M-250.46,83.833
		c-1.573,3.004-5.667,3.857-10.042,3.857s-8.469-0.853-10.042-3.857"/>
</g>
<g id="Layer_8">
	<radialGradient id="SVGID_7_" cx="-260.5015" cy="73.5005" r="4" gradientUnits="userSpaceOnUse">
		<stop  offset="0" style="stop-color:#81868E"/>
		<stop  offset="0.3051" style="stop-color:#95979E"/>
		<stop  offset="0.6461" style="stop-color:#A6A6AC"/>
		<stop  offset="0.8875" style="stop-color:#ACABB2"/>
		<stop  offset="0.9595" style="stop-color:#D9D7E0"/>
		<stop  offset="0.9963" style="stop-color:#ECEAF4"/>
	</radialGradient>
	<circle style="fill:url(#SVGID_7_);" cx="-260.501" cy="73.5" r="4"/>
</g>
<g id="Layer_6">
	<radialGradient id="SVGID_8_" cx="-93.5005" cy="73.5005" r="73.5005" gradientUnits="userSpaceOnUse">
		<stop  offset="0" style="stop-color:#ADB3BB"/>
		<stop  offset="0.6314" style="stop-color:#787D86"/>
		<stop  offset="0.6944" style="stop-color:#7F848D"/>
		<stop  offset="0.7245" style="stop-color:#7D828B"/>
		<stop  offset="0.7384" style="stop-color:#777B84"/>
		<stop  offset="0.7488" style="stop-color:#6B7079"/>
		<stop  offset="0.7568" style="stop-color:#5D636C"/>
		<stop  offset="0.7715" style="stop-color:#61666F"/>
		<stop  offset="0.7852" style="stop-color:#6A6F78"/>
		<stop  offset="0.7986" style="stop-color:#7B7F89"/>
		<stop  offset="0.8116" style="stop-color:#9398A2"/>
		<stop  offset="0.8212" style="stop-color:#A9AFBB"/>
		<stop  offset="0.8687" style="stop-color:#90969F"/>
		<stop  offset="0.874" style="stop-color:#9EA3AD"/>
		<stop  offset="0.8846" style="stop-color:#B5BAC3"/>
		<stop  offset="0.8955" style="stop-color:#C5CAD4"/>
		<stop  offset="0.9069" style="stop-color:#CFD4DE"/>
		<stop  offset="0.9195" style="stop-color:#D2D8E1"/>
		<stop  offset="0.9393" style="stop-color:#CED3DD"/>
		<stop  offset="0.9606" style="stop-color:#C3C7D1"/>
		<stop  offset="0.9704" style="stop-color:#BBBFC9"/>
		<stop  offset="1" style="stop-color:#E3E6EF"/>
	</radialGradient>
	<circle style="fill:url(#SVGID_8_);" cx="-93.5" cy="73.501" r="73.5"/>
	<g id="Layer_7">
		<linearGradient id="SVGID_9_" gradientUnits="userSpaceOnUse" x1="-93.5005" y1="26.2793" x2="-93.5005" y2="120.7222">
			<stop  offset="0" style="stop-color:#494F59"/>
			<stop  offset="0.0733" style="stop-color:#66656E"/>
			<stop  offset="0.198" style="stop-color:#918E96"/>
			<stop  offset="0.3167" style="stop-color:#B5B3BC"/>
			<stop  offset="0.4263" style="stop-color:#CFD0D9"/>
			<stop  offset="0.5235" style="stop-color:#DFE2EC"/>
			<stop  offset="0.5983" style="stop-color:#E5E8F2"/>
			<stop  offset="0.6335" style="stop-color:#D6D8E2"/>
			<stop  offset="0.7022" style="stop-color:#B2B1B9"/>
			<stop  offset="0.7313" style="stop-color:#A09FA7"/>
			<stop  offset="0.7598" style="stop-color:#A8A7AF"/>
			<stop  offset="0.8488" style="stop-color:#BDBCC4"/>
			<stop  offset="0.9312" style="stop-color:#CAC8D1"/>
			<stop  offset="1" style="stop-color:#CECDD5"/>
		</linearGradient>
		<circle style="fill:url(#SVGID_9_);" cx="-93.501" cy="73.501" r="47.221"/>
		<polygon style="fill:#FFE200;" points="39.832,84.478 89.754,2.382 77.143,65.42 108.299,61.535 58.107,143.569 70.957,80.58 		
			"/>
	</g>
</g>
<g id="Layer_9">
</g>
</svg>
